<?xml version="1.0" standalone="no"?>
<!DOCTYPE svg PUBLIC "-//W3C//DTD SVG 20010904//EN"
 "http://www.w3.org/TR/2001/REC-SVG-20010904/DTD/svg10.dtd">
<svg version="1.0" xmlns="http://www.w3.org/2000/svg"
 width="160.000000pt" height="161.000000pt" viewBox="0 0 160.000000 161.000000"
 preserveAspectRatio="xMidYMid meet">

<g transform="translate(0.000000,161.000000) scale(0.100000,-0.100000)"
fill="#000000" stroke="none">
<path d="M685 1589 c-288 -42 -547 -262 -634 -539 -121 -386 56 -787 421 -954
114 -52 196 -70 328 -69 136 0 220 18 335 73 201 96 346 266 415 485 35 110
39 277 10 401 -72 314 -315 545 -629 598 -102 17 -153 18 -246 5z m300 -34
c167 -43 318 -157 379 -285 25 -52 32 -81 34 -146 3 -71 0 -89 -23 -145 -21
-48 -30 -90 -35 -164 -5 -57 -17 -125 -28 -158 -52 -146 -163 -261 -315 -325
-56 -24 -74 -26 -192 -27 -120 0 -135 2 -197 28 l-67 28 -146 -46 c-81 -26
-149 -44 -152 -41 -3 2 16 68 42 146 l47 141 -25 57 c-34 76 -46 133 -47 216
0 50 -5 77 -19 100 -11 17 -27 58 -36 90 -69 236 147 488 467 546 71 12 239 5
313 -15z"/>
<path d="M366 773 c12 -57 35 -119 58 -159 l23 -41 -26 -75 -27 -74 78 24 78
25 61 -28 c130 -58 268 -56 391 6 112 56 204 179 227 301 8 44 7 47 -10 38 -9
-6 -25 -17 -34 -26 -12 -13 -19 -14 -28 -5 -16 16 -32 14 -18 -3 18 -21 -18
-30 -40 -11 -16 15 -18 15 -27 -2 -9 -15 -11 -15 -16 -3 -2 8 -7 22 -9 30 -3
8 -6 3 -6 -12 -1 -18 5 -29 18 -33 27 -8 32 -29 18 -72 -18 -57 -68 -86 -138
-81 -75 5 -189 61 -261 127 -38 34 -62 50 -70 45 -23 -15 -46 -14 -58 1 -14
17 -40 20 -40 5 0 -21 -20 -9 -21 13 l0 22 -9 -22 c-12 -30 -23 -29 -76 8
l-45 30 7 -28z"/>
<path d="M595 770 c-3 -5 -1 -10 4 -10 6 0 11 5 11 10 0 6 -2 10 -4 10 -3 0
-8 -4 -11 -10z"/>
<path d="M853 774 c8 -15 -18 -38 -33 -29 -5 3 -10 4 -10 1 0 -3 14 -13 31
-22 26 -13 33 -14 44 -2 9 10 6 18 -13 38 -14 14 -22 20 -19 14z"/>
<path d="M795 760 c-3 -6 1 -7 9 -4 18 7 21 14 7 14 -6 0 -13 -4 -16 -10z"/>
</g>
</svg>
